<mxfile host="app.diagrams.net" modified="2024-05-09T06:33:56.861Z" agent="Mozilla/5.0 (Windows NT 10.0; Win64; x64) AppleWebKit/537.36 (KHTML, like Gecko) Chrome/124.0.0.0 Safari/537.36" etag="fKX5a2I3oLwtjw5qMozJ" version="24.3.1" type="github">
  <diagram name="Page-1" id="bcGxM4BLLPS0nU-thGvx">
    <mxGraphModel dx="1006" dy="1097" grid="1" gridSize="40" guides="1" tooltips="1" connect="1" arrows="1" fold="1" page="0" pageScale="1" pageWidth="850" pageHeight="1100" background="#000000" math="0" shadow="1">
      <root>
        <mxCell id="0" />
        <mxCell id="1" parent="0" />
        <mxCell id="F2E87J5YGU-Is8CTN7Rq-43" style="edgeStyle=orthogonalEdgeStyle;rounded=1;orthogonalLoop=1;jettySize=auto;html=1;strokeColor=#005700;strokeWidth=5;align=center;verticalAlign=middle;fontFamily=Helvetica;fontSize=12;fontColor=default;labelBackgroundColor=default;endArrow=none;fillColor=#008a00;endFill=0;curved=0;dashed=1;" edge="1" parent="1" source="F2E87J5YGU-Is8CTN7Rq-5" target="F2E87J5YGU-Is8CTN7Rq-6">
          <mxGeometry relative="1" as="geometry">
            <Array as="points">
              <mxPoint x="268" y="400" />
              <mxPoint x="160" y="400" />
              <mxPoint x="160" y="265" />
            </Array>
          </mxGeometry>
        </mxCell>
        <mxCell id="F2E87J5YGU-Is8CTN7Rq-5" value="" style="image;aspect=fixed;perimeter=ellipsePerimeter;html=1;align=center;shadow=0;dashed=0;spacingTop=3;image=img/lib/active_directory/generic_server.svg;" vertex="1" parent="1">
          <mxGeometry x="240" y="440" width="56" height="100" as="geometry" />
        </mxCell>
        <mxCell id="F2E87J5YGU-Is8CTN7Rq-6" value="" style="image;aspect=fixed;perimeter=ellipsePerimeter;html=1;align=center;shadow=0;dashed=0;spacingTop=3;image=img/lib/active_directory/generic_server.svg;" vertex="1" parent="1">
          <mxGeometry x="244.4" y="205" width="67.2" height="120" as="geometry" />
        </mxCell>
        <mxCell id="F2E87J5YGU-Is8CTN7Rq-28" style="edgeStyle=orthogonalEdgeStyle;rounded=0;orthogonalLoop=1;jettySize=auto;html=1;strokeColor=#FFFFFF;strokeWidth=3;align=center;verticalAlign=middle;fontFamily=Helvetica;fontSize=12;fontColor=default;labelBackgroundColor=default;endArrow=classic;" edge="1" parent="1" source="F2E87J5YGU-Is8CTN7Rq-9">
          <mxGeometry relative="1" as="geometry">
            <mxPoint x="520" y="440" as="targetPoint" />
          </mxGeometry>
        </mxCell>
        <mxCell id="F2E87J5YGU-Is8CTN7Rq-42" style="edgeStyle=entityRelationEdgeStyle;rounded=1;orthogonalLoop=1;jettySize=auto;html=1;strokeColor=#005700;strokeWidth=5;align=center;verticalAlign=middle;fontFamily=Helvetica;fontSize=12;fontColor=default;labelBackgroundColor=default;endArrow=none;elbow=vertical;fillColor=#008a00;endFill=0;dashed=1;" edge="1" parent="1" source="F2E87J5YGU-Is8CTN7Rq-9" target="F2E87J5YGU-Is8CTN7Rq-6">
          <mxGeometry relative="1" as="geometry">
            <mxPoint x="280" y="700.6" as="sourcePoint" />
            <mxPoint x="80" y="360" as="targetPoint" />
          </mxGeometry>
        </mxCell>
        <mxCell id="F2E87J5YGU-Is8CTN7Rq-9" value="" style="sketch=0;aspect=fixed;pointerEvents=1;shadow=0;dashed=0;html=1;strokeColor=none;labelPosition=center;verticalLabelPosition=bottom;verticalAlign=top;align=center;fillColor=#3399FF;shape=mxgraph.azure.computer;fontFamily=Helvetica;fontSize=12;fontColor=default;labelBackgroundColor=default;" vertex="1" parent="1">
          <mxGeometry x="480" y="634.4" width="90" height="81" as="geometry" />
        </mxCell>
        <mxCell id="F2E87J5YGU-Is8CTN7Rq-27" style="edgeStyle=orthogonalEdgeStyle;rounded=0;orthogonalLoop=1;jettySize=auto;html=1;strokeColor=#FFFFFF;strokeWidth=3;align=center;verticalAlign=middle;fontFamily=Helvetica;fontSize=12;fontColor=default;labelBackgroundColor=default;endArrow=classic;" edge="1" parent="1" source="F2E87J5YGU-Is8CTN7Rq-10">
          <mxGeometry relative="1" as="geometry">
            <mxPoint x="560" y="415" as="targetPoint" />
          </mxGeometry>
        </mxCell>
        <mxCell id="F2E87J5YGU-Is8CTN7Rq-10" value="" style="sketch=0;aspect=fixed;pointerEvents=1;shadow=1;dashed=0;html=1;strokeColor=none;labelPosition=center;verticalLabelPosition=bottom;verticalAlign=top;align=center;fillColor=#FFCCCC;shape=mxgraph.azure.computer;fontFamily=Helvetica;fontSize=12;fontColor=default;labelBackgroundColor=default;" vertex="1" parent="1">
          <mxGeometry x="760" y="359.40000000000003" width="123.56" height="111.2" as="geometry" />
        </mxCell>
        <mxCell id="F2E87J5YGU-Is8CTN7Rq-14" style="edgeStyle=orthogonalEdgeStyle;rounded=0;orthogonalLoop=1;jettySize=auto;html=1;exitX=0.5;exitY=1;exitDx=0;exitDy=0;exitPerimeter=0;fontFamily=Helvetica;fontSize=12;fontColor=default;labelBackgroundColor=default;" edge="1" parent="1" source="F2E87J5YGU-Is8CTN7Rq-11">
          <mxGeometry relative="1" as="geometry">
            <mxPoint x="505" y="480" as="targetPoint" />
          </mxGeometry>
        </mxCell>
        <mxCell id="F2E87J5YGU-Is8CTN7Rq-23" style="edgeStyle=orthogonalEdgeStyle;rounded=0;orthogonalLoop=1;jettySize=auto;html=1;strokeColor=#FFFFFF;strokeWidth=3;align=center;verticalAlign=middle;fontFamily=Helvetica;fontSize=12;fontColor=default;labelBackgroundColor=default;endArrow=classic;" edge="1" parent="1" source="F2E87J5YGU-Is8CTN7Rq-12">
          <mxGeometry relative="1" as="geometry">
            <mxPoint x="525" y="160" as="targetPoint" />
          </mxGeometry>
        </mxCell>
        <mxCell id="F2E87J5YGU-Is8CTN7Rq-12" value="" style="sketch=0;points=[[0.5,0,0],[1,0.5,0],[0.5,1,0],[0,0.5,0],[0.145,0.145,0],[0.8555,0.145,0],[0.855,0.8555,0],[0.145,0.855,0]];verticalLabelPosition=bottom;html=1;verticalAlign=top;aspect=fixed;align=center;pointerEvents=1;shape=mxgraph.cisco19.rect;prIcon=router;fillColor=#FAFAFA;strokeColor=#005073;shadow=0;dashed=0;fontFamily=Helvetica;fontSize=12;fontColor=default;labelBackgroundColor=default;" vertex="1" parent="1">
          <mxGeometry x="500" y="240" width="50" height="50" as="geometry" />
        </mxCell>
        <mxCell id="F2E87J5YGU-Is8CTN7Rq-13" value="" style="whiteSpace=wrap;html=1;shape=mxgraph.basic.cloud_callout;shadow=0;dashed=0;strokeColor=#001DBC;align=center;verticalAlign=top;fontFamily=Helvetica;fontSize=12;labelBackgroundColor=default;fillColor=#0050ef;fontColor=#ffffff;" vertex="1" parent="1">
          <mxGeometry x="480" y="80" width="90" height="60" as="geometry" />
        </mxCell>
        <mxCell id="F2E87J5YGU-Is8CTN7Rq-15" value="" style="edgeStyle=orthogonalEdgeStyle;rounded=0;orthogonalLoop=1;jettySize=auto;html=1;exitX=0.5;exitY=1;exitDx=0;exitDy=0;exitPerimeter=0;fontFamily=Helvetica;fontSize=12;fontColor=default;labelBackgroundColor=default;" edge="1" parent="1" source="F2E87J5YGU-Is8CTN7Rq-12" target="F2E87J5YGU-Is8CTN7Rq-11">
          <mxGeometry relative="1" as="geometry">
            <mxPoint x="505" y="480" as="targetPoint" />
            <mxPoint x="505" y="315" as="sourcePoint" />
          </mxGeometry>
        </mxCell>
        <mxCell id="F2E87J5YGU-Is8CTN7Rq-24" style="edgeStyle=orthogonalEdgeStyle;rounded=0;orthogonalLoop=1;jettySize=auto;html=1;strokeColor=#FFFFFF;strokeWidth=3;align=center;verticalAlign=middle;fontFamily=Helvetica;fontSize=12;fontColor=default;labelBackgroundColor=default;endArrow=classic;" edge="1" parent="1" source="F2E87J5YGU-Is8CTN7Rq-11">
          <mxGeometry relative="1" as="geometry">
            <mxPoint x="525" y="320" as="targetPoint" />
          </mxGeometry>
        </mxCell>
        <mxCell id="F2E87J5YGU-Is8CTN7Rq-11" value="" style="sketch=0;points=[[0.015,0.015,0],[0.985,0.015,0],[0.985,0.985,0],[0.015,0.985,0],[0.25,0,0],[0.5,0,0],[0.75,0,0],[1,0.25,0],[1,0.5,0],[1,0.75,0],[0.75,1,0],[0.5,1,0],[0.25,1,0],[0,0.75,0],[0,0.5,0],[0,0.25,0]];verticalLabelPosition=bottom;html=1;verticalAlign=top;aspect=fixed;align=center;pointerEvents=1;shape=mxgraph.cisco19.rect;prIcon=l2_switch;fillColor=#FAFAFA;strokeColor=#005073;shadow=0;dashed=0;fontFamily=Helvetica;fontSize=12;fontColor=default;labelBackgroundColor=default;" vertex="1" parent="1">
          <mxGeometry x="500" y="390" width="50" height="50" as="geometry" />
        </mxCell>
        <mxCell id="F2E87J5YGU-Is8CTN7Rq-21" style="edgeStyle=orthogonalEdgeStyle;rounded=0;orthogonalLoop=1;jettySize=auto;html=1;entryX=0;entryY=0.5;entryDx=0;entryDy=0;entryPerimeter=0;strokeColor=#FFFFFF;strokeWidth=3;align=center;verticalAlign=middle;fontFamily=Helvetica;fontSize=12;fontColor=default;labelBackgroundColor=default;endArrow=classic;" edge="1" parent="1" source="F2E87J5YGU-Is8CTN7Rq-5" target="F2E87J5YGU-Is8CTN7Rq-11">
          <mxGeometry relative="1" as="geometry">
            <Array as="points">
              <mxPoint x="398" y="520" />
              <mxPoint x="398" y="415" />
            </Array>
          </mxGeometry>
        </mxCell>
        <mxCell id="F2E87J5YGU-Is8CTN7Rq-29" value="&lt;font style=&quot;font-size: 14px;&quot;&gt;Domain : TomYum&lt;br&gt;Network: 192.168.10.0/24&lt;/font&gt;&lt;div&gt;&lt;font style=&quot;font-size: 14px;&quot;&gt;Splunk Server: 192.168.10.10&lt;br&gt;Active Directory: 192.168.10.7&lt;/font&gt;&lt;/div&gt;&lt;div&gt;&lt;font style=&quot;font-size: 14px;&quot;&gt;Threat Actor: 192.168.10.250&amp;nbsp;&lt;/font&gt;&lt;/div&gt;" style="text;html=1;align=center;verticalAlign=middle;resizable=0;points=[];autosize=1;strokeColor=none;fillColor=none;fontFamily=Helvetica;fontSize=12;fontColor=default;labelBackgroundColor=default;strokeWidth=11;rotation=0;glass=1;fontStyle=1" vertex="1" parent="1">
          <mxGeometry x="80" width="200" height="120" as="geometry" />
        </mxCell>
        <mxCell id="F2E87J5YGU-Is8CTN7Rq-35" value="" style="edgeStyle=orthogonalEdgeStyle;rounded=0;orthogonalLoop=1;jettySize=auto;html=1;strokeColor=#FFFFFF;strokeWidth=3;align=center;verticalAlign=middle;fontFamily=Helvetica;fontSize=12;fontColor=default;labelBackgroundColor=default;endArrow=classic;" edge="1" parent="1" source="F2E87J5YGU-Is8CTN7Rq-30" target="F2E87J5YGU-Is8CTN7Rq-6">
          <mxGeometry relative="1" as="geometry" />
        </mxCell>
        <mxCell id="F2E87J5YGU-Is8CTN7Rq-36" style="edgeStyle=orthogonalEdgeStyle;rounded=0;orthogonalLoop=1;jettySize=auto;html=1;strokeColor=#FFFFFF;strokeWidth=3;align=center;verticalAlign=middle;fontFamily=Helvetica;fontSize=12;fontColor=default;labelBackgroundColor=default;endArrow=classic;" edge="1" parent="1" source="F2E87J5YGU-Is8CTN7Rq-30" target="F2E87J5YGU-Is8CTN7Rq-11">
          <mxGeometry relative="1" as="geometry">
            <mxPoint x="400" y="400" as="targetPoint" />
            <Array as="points">
              <mxPoint x="360" y="360" />
              <mxPoint x="360" y="440" />
              <mxPoint x="400" y="440" />
              <mxPoint x="400" y="415" />
            </Array>
          </mxGeometry>
        </mxCell>
        <mxCell id="F2E87J5YGU-Is8CTN7Rq-30" value="Splunk Sever&amp;nbsp;&lt;br&gt;IP: 192.168.10.10" style="text;html=1;align=center;verticalAlign=middle;resizable=0;points=[];autosize=1;strokeColor=none;fillColor=none;fontFamily=Helvetica;fontSize=12;fontColor=default;labelBackgroundColor=default;" vertex="1" parent="1">
          <mxGeometry x="218" y="340" width="120" height="40" as="geometry" />
        </mxCell>
        <mxCell id="F2E87J5YGU-Is8CTN7Rq-31" value="Active Directory&lt;br&gt;IP: 192. 168.10.7&lt;br&gt;Splunk Universal Forwarder&lt;div&gt;Sysmon&lt;/div&gt;" style="text;html=1;align=center;verticalAlign=middle;resizable=0;points=[];autosize=1;strokeColor=none;fillColor=none;fontFamily=Helvetica;fontSize=12;fontColor=default;labelBackgroundColor=default;" vertex="1" parent="1">
          <mxGeometry x="136" y="540" width="160" height="80" as="geometry" />
        </mxCell>
        <mxCell id="F2E87J5YGU-Is8CTN7Rq-37" value="Window 10&lt;div&gt;IP: DHCP&lt;/div&gt;&lt;div&gt;Splunk Universal Forwarder&lt;br&gt;Sysmon&lt;/div&gt;&lt;div&gt;Atomic Red Team&lt;/div&gt;" style="text;html=1;align=center;verticalAlign=middle;resizable=0;points=[];autosize=1;strokeColor=none;fillColor=none;fontFamily=Helvetica;fontSize=12;fontColor=default;labelBackgroundColor=default;" vertex="1" parent="1">
          <mxGeometry x="437" y="695.4" width="160" height="120" as="geometry" />
        </mxCell>
        <mxCell id="F2E87J5YGU-Is8CTN7Rq-38" value="Internet" style="text;html=1;align=center;verticalAlign=middle;resizable=0;points=[];autosize=1;fontFamily=Helvetica;fontSize=12;labelBackgroundColor=default;strokeWidth=8;" vertex="1" parent="1">
          <mxGeometry x="485" y="40" width="80" height="40" as="geometry" />
        </mxCell>
        <mxCell id="F2E87J5YGU-Is8CTN7Rq-39" value="Attacker Kali Linux&lt;div&gt;IP: 192.168.10.250&lt;/div&gt;" style="text;html=1;align=center;verticalAlign=middle;resizable=0;points=[];autosize=1;strokeColor=none;fillColor=none;fontFamily=Helvetica;fontSize=12;fontColor=default;labelBackgroundColor=default;" vertex="1" parent="1">
          <mxGeometry x="760" y="513" width="120" height="40" as="geometry" />
        </mxCell>
        <mxCell id="F2E87J5YGU-Is8CTN7Rq-40" value="Router" style="text;html=1;align=center;verticalAlign=middle;resizable=0;points=[];autosize=1;strokeColor=none;fillColor=none;fontFamily=Helvetica;fontSize=12;fontColor=default;labelBackgroundColor=default;" vertex="1" parent="1">
          <mxGeometry x="485" y="285" width="80" height="40" as="geometry" />
        </mxCell>
        <mxCell id="F2E87J5YGU-Is8CTN7Rq-41" value="Switch" style="text;html=1;align=center;verticalAlign=middle;resizable=0;points=[];autosize=1;strokeColor=none;fillColor=none;fontFamily=Helvetica;fontSize=12;fontColor=default;labelBackgroundColor=default;" vertex="1" parent="1">
          <mxGeometry x="517" y="430.6" width="80" height="40" as="geometry" />
        </mxCell>
      </root>
    </mxGraphModel>
  </diagram>
</mxfile>
